<svg xmlns="http://www.w3.org/2000/svg" fill="none" viewBox="0 0 128 128">
    <path d="m54 118 28 12 28-12v-16l-28 12-28-12v16Z" fill="#fff"/>
    <path d="m54 102 28 12 28-12v-16l-28 12-28-12v16Z" fill="#16a085"/>
    <path d="m54 86 28 12 28-12v-16l-28 12-28-12v16Z" fill="#27ae60"/>
    <path d="m54 70 28 12 28-12v-16l-28 12-28-12v16Z" fill="#2980b9"/>
    <path d="m54 54 28 12 28-12v-16l-28 12-28-12v16Z" fill="#8e44ad"/>
    <path d="m54 38 28 12 28-12v-16l-28 12-28-12v16Z" fill="#e74c3c"/>
    <path d="m54 22 28 12 28-12v-16l-28 12-28-12v16Z" fill="#f39c12"/>
</svg>